<svg viewBox="555.513 -80.075 1027.319 145.177" xmlns="http://www.w3.org/2000/svg"><path fill="#0" d="M874.29-52.734c-1.302 1.22-3.108 1.674-5.416 1.364a.397.397 0 0 0-.445.439l.219 2.125c.02.231.192.423.425.473l.185.034c.42.091.477.288.172.59l-.761.768c-9.749.822-18.868 3.611-27.355 8.364-3.099 1.734-4.539 3.915-6.719 6.191-3.27 3.407-6.136 7.109-9.489 10.489a.78.78 0 0 1-.582.247h-39.518c-1.202-2.912-2.029-5.121-2.481-6.63-.773-2.545-.106-4.605 2.001-6.177 1.934-1.444 3.965-2.507 6.095-3.188l.028.576c-3.072.933-5.567 3.133-5.773 6.506-.014.229.093.325.322.288a46.854 46.854 0 0 1 8.371-.644c.402.005.46.146.172.425-1.79 1.721-2.777 2.927-2.688 5.683.014.389.107.41.281.062.16-.315.231-.653.213-1.014-.178-4.237 7.726-6.466 10.832-7.131 5.165-1.11 9.943-2.008 14.336-2.694a50.212 50.212 0 0 0 5.491-1.207 530.071 530.071 0 0 0 13.136-3.839c.21-.064.395-.166.556-.308.511-.444.431-.643-.24-.597l-18.47 1.138c-.727-2.413-1.863-4.806-3.408-7.178.275.124.386.098.336-.075l17.483-.371a.3.3 0 0 0 .185-.534l-21.863-17.784c-3.284-2.633-5.876-4.388-9.146-4.402a17109.32 17109.32 0 0 0-107.205-.089c-4.196-.288-7.055 1.57-9.818 3.819a813.384 813.384 0 0 1-23.735 18.613c-.389.293-.341.448.144.467l13.746.5c.311 1.092.631 2.134.96 3.126.432 1.282 1.268 1.899 2.255 2.75.38.331.505.868.309 1.33-.01.022-.192.018-.549-.014-7.02-.699-13.851-1.058-20.492-1.076-1.285-.005-1.321.21-.109.644 11.792 4.209 23.858 6.335 36.089 8.789 4.36.878 8.782 2.804 10.359 7.329.269.777.311 1.602.123 2.475a.822.822 0 0 1-.815.658l-34.643-.301a.185.185 0 0 0-.167.274l.009.014 3.277 5.141c-1.239-.173-2.66-.992-4.264-2.454-8.753-7.994-18.523-15.193-29.309-21.596-2.495-1.481-5.666-3.032-9.509-4.655 5.699.727 10.939 2.052 15.721 3.976.516.211.545.158.089-.157-4.923-3.355-10.57-5.225-16.941-5.608.219-.965 1.115-1.274 2.687-.926.22.046.429.014.631-.096 1.558-.873 2.386-2.365 2.482-4.477 3.51.32 6.741 1.168 9.694 2.544 1.046.488 2.119.964 3.215 1.426a.586.586 0 0 0 .583-.076c2.674-2.116 5.336-4.218 7.987-6.307 4.534-3.574 13.431-10.625 26.69-21.15 1.988-1.577 4.134-2.707 6.438-3.387 1.453-.425 3.816-.647 7.089-.665 34.791-.146 69.516-.199 104.175-.158 4.641.007 9.056-.021 12.999 2.982 9.854 7.51 21.815 17.113 35.883 28.809.345.292.833.351 1.241.151 8.323-4.032 16.488-5.033 26.196-4.614Z"/><path fill="#b12720" d="M632.1-52.289c-.096 2.112-.924 3.604-2.482 4.477a.895.895 0 0 1-.631.096c-1.572-.348-2.468-.039-2.687.926l-4.601-.117c-.292-.023-.527-.091-.706-.206-.142-.087-.253-.279-.336-.576a5.124 5.124 0 0 0-1.145-2.097 1.169 1.169 0 0 1-.287-.611l-.055-.37c-.051-.338-.243-.544-.576-.617l-1.392-.322a.62.62 0 0 1-.446-.377c-.096-.233-.006-.441.268-.624 5.151-.228 10.176-.089 15.076.418Zm242.19-.445c3.588-.138 7.304.075 11.148.637 10.099 1.474 17.729 9.276 18.01 19.635l-.294-.72c-.165-.392-.286-.379-.364.042-.064.342-.171.68-.322 1.014-.101.215-.13.441-.089.679.045.293-.03.533-.226.72-.137.132-.233.29-.288.473-2.132 7.151-4.278 12.82-8.481 18.093-4.621 5.793-9.783 11.394-16.482 15.953l-7.966 4.58c-.211.119-.272.29-.185.514.114.302.333.581.658.837.004.32.073.632.206.939a.499.499 0 0 1-.076.562c-2.066 2.528-3.576 5.411-4.531 8.652-.096.329-.314.514-.652.555-.384.05-.594.27-.63.659a.769.769 0 0 1-.583.678c-.261.064-.51.179-.748.343-.032.027-.027.041.014.041l.178.007c.174.005.275.096.302.274.023.142-.003.311-.075.508-3.15-2.852-6.701-4.928-10.654-6.226-3.799-1.247-7.576-1.275-11.792-1.302a1935.004 1935.004 0 0 0-32.593.055l-2.393-.076c-.274-.009-.288-.073-.041-.192a7.463 7.463 0 0 1 3.654-.754.304.304 0 0 0 .267-.123.624.624 0 0 1 .192-.172c.174-.091.224-.046.151.138-.05.137-.025.173.076.109.113-.064.221-.13.322-.199.178-.123.372-.194.583-.212l2.495-.226c.566-.05.592-.197.076-.439l-.295-.137c-.243-.115-.307-.293-.192-.535a6.806 6.806 0 0 1 1.344-1.906.873.873 0 0 1 .569-.26.987.987 0 0 0 .788-.467c.123-.201.288-.363.494-.486a12.713 12.713 0 0 0 2.687-2.181.45.45 0 0 1 .391-.15.427.427 0 0 1 .24.089c.201.142.398.135.59-.021a8.02 8.02 0 0 0 1.707-1.872c.781-1.215 1.193-1.849 1.234-1.899a42.934 42.934 0 0 0 1.768-2.502c.522-.802 1.502-1.645 1.858-2.818a.47.47 0 0 1 .453-.37c.196-.019.302-.149.315-.391a.71.71 0 0 1 .24-.514l1.131-1.063c.165-.15.277-.334.336-.548.158-.528.288-.754.761-1.09a51.542 51.542 0 0 0 1.893-1.412c.173-.138.292-.314.356-.528.251-.892.82-1.538 1.707-1.941a.762.762 0 0 0 .398-.418c.055-.155.139-.297.254-.425.182-.197.305-.166.37.089a13.92 13.92 0 0 1 .425 3.812c-.005.124.031.137.11.041a.394.394 0 0 0 .082-.315c-.106-.691-.08-1.325.075-1.906.031-.124.187-.162.28-.069.019.02.034.044.042.069l.144.48c.727 5.055 3.535 7.587 8.426 7.596 10.005.019 20.534-2.525 31.585-7.63 5.965-2.756 11.525-7.61 16.064-12.266 2.358-2.413 4.161-5.937 1.446-8.727-1.892-1.947-4.854-2.119-7.281-1.899a119.696 119.696 0 0 0-36.171 9.05c-4.073 1.722-7.254 3.345-9.544 4.867-.183-.073-.304-.173-.363-.301-.106-.238-.039-.412.199-.521.141-.069.29-.108.445-.117.196-.014.323-.115.377-.302.069-.228.231-.349.487-.363a.747.747 0 0 0 .508-.24c.493-.526 1.135-.907 1.926-1.145a6.098 6.098 0 0 0 2.16-1.186.803.803 0 0 1 .658-.185c.47.073.845-.073 1.124-.439.155-.206.359-.336.61-.391a4.029 4.029 0 0 0 2.194-1.254c.206-.229.722-.492 1.55-.789a.521.521 0 0 0 .349-.384c.233-.9.752-1.547 1.557-1.94a.961.961 0 0 0 .452-.445c.357-.7.852-1.278 1.488-1.735.461-.334.792-.61.994-.83.5-.548 1.097-1.11 1.398-1.803.165-.388.464-.589.899-.603a.353.353 0 0 0 .342-.302c.064-.498.336-.834.816-1.007.11-.042.148-.117.117-.227-.065-.214-.026-.441.116-.678a.574.574 0 0 1 .062-.09 116.75 116.75 0 0 1 2.784-3.222.937.937 0 0 0 .178-.301 1.08 1.08 0 0 1 .493-.597 1.51 1.51 0 0 0 .487-.446c.48-.69.669-1.444.569-2.262a1.593 1.593 0 0 1 .055-.686l.391-1.343a.547.547 0 0 1 .439-.412.741.741 0 0 0 .5-.384.476.476 0 0 1 .48-.26c.686.041 1.015-.151.987-.576a114.53 114.53 0 0 0 1.879-.603c1.851-.611 3.983-.665 5.923-.871l2.098-.178c.361-.033.366-.091.014-.179-1.111-.269-2.279-.303-3.503-.102l-5.807.089.761-.768c.305-.302.248-.499-.172-.59l-.185-.034a.535.535 0 0 1-.425-.473l-.219-2.125a.397.397 0 0 1 .445-.439c2.308.31 4.114-.144 5.416-1.364Z"/><path fill="#f34d3d" d="M617.024-52.707c-.274.183-.364.391-.268.624a.62.62 0 0 0 .446.377l1.392.322c.333.073.525.279.576.617l.055.37c.036.233.132.437.287.611.549.612.93 1.311 1.145 2.097.083.297.194.489.336.576.179.115.414.183.706.206-.388-.009-.596-.007-.623.007-.563.302-.524.516.116.644l6.239 1.255c3.843 1.623 7.014 3.174 9.509 4.655 10.786 6.403 20.556 13.602 29.309 21.596 1.604 1.462 3.025 2.281 4.264 2.454 10.554-.183 21.091-.258 31.613-.226.324 0 .612-.041.864-.123.401-.124.665-.252.788-.384 2.943-3.195 4.472-6.909 4.587-11.141.102-3.805-1.159-6.424-4.608-8.001-2.468-1.129-4.925-1.88-7.37-2.255a166.713 166.713 0 0 0-19.505-1.817c.357.032.539.036.549.014a1.163 1.163 0 0 0-.309-1.33c-.987-.851-1.823-1.468-2.255-2.75a76.526 76.526 0 0 1-.96-3.126l93.418.082c-.101.242-.085.419.048.528a.24.24 0 0 0 .24.048.331.331 0 0 1 .199.007c.214.069.214.139 0 .213-.119.036-.176.116-.172.24 0 .196-.15.359-.342.37-.864.046-1.666.468-2.407 1.268a.982.982 0 0 0-.24.446c-.205.923-.674 1.629-1.405 2.118-1.152.768-2.041 1.682-2.667 2.743a1.224 1.224 0 0 1-.473.452 1.602 1.602 0 0 0-.535.453c-.325.443-.519.692-.583.747a177.73 177.73 0 0 1-7.267 6.232c-.032.022-.041.062-.027.116.009.046-.003.083-.035.11a283.883 283.883 0 0 1-7.486 6.074c-.48.38-.889.811-1.227 1.296a.635.635 0 0 1-.473.261c-.723.041-1.335.342-1.838.905a4.997 4.997 0 0 1-1.33 1.035 53.724 53.724 0 0 1-4.079 1.995.473.473 0 0 1-.309.021.544.544 0 0 0-.418.082l-3.476 2.516a.625.625 0 0 1-.507.11c-.197-.037-.318.027-.363.192a.502.502 0 0 1-.336.356c-.723.256-1.433.649-2.133 1.179a.98.98 0 0 1-.63.206 1.37 1.37 0 0 0-.926.308.46.46 0 0 1-.418.096c-.736-.173-1.415-.056-2.036.35-.151.101-.302.098-.453-.007-.21-.151-.393-.128-.548.069a.574.574 0 0 1-.549.226c-1.364-.171-2.166.775-3.469.644a1.064 1.064 0 0 0-.733.199 12.157 12.157 0 0 1-4.731 2.112 5.842 5.842 0 0 0-1.83.713 5.415 5.415 0 0 1-1.79.672c-.898.171-1.967-.336-2.989.055a61.934 61.934 0 0 1-1.652.624c-1.504.31-3.026.507-4.566.589a1.083 1.083 0 0 0-.604.226 1.458 1.458 0 0 1-1 .316c-1.509-.078-2.844.322-4.004 1.2-.17.128-.36.212-.569.253a12.945 12.945 0 0 0-4.512 1.783c-.191.123-.4.183-.623.178-.504-.009-.931.192-1.282.603-.563.65-1.294.999-2.194 1.049a.934.934 0 0 0-.617.254.926.926 0 0 0-.309.747c0 .069-.034.103-.103.103h-.288a.541.541 0 0 0-.356.13 4.336 4.336 0 0 1-1.831.905c-.503.115-.997.242-1.481.384a125.76 125.76 0 0 1-4.943 1.31 12.668 12.668 0 0 0-2.852 1.049 1.44 1.44 0 0 1-.644.164 5.801 5.801 0 0 0-3.174 1.015.48.48 0 0 1-.576 0c-.471-.316-.876-.247-1.214.206a.69.69 0 0 1-.48.281l-4.093.466a1.506 1.506 0 0 1-.72-.096c-1.243-.494-2.529-.521-3.859-.082a5.886 5.886 0 0 0-.837.342c-.325.16-.668.172-1.028.035a1.071 1.071 0 0 0-.645-.048c-.356.082-.69.226-1.001.432a.851.851 0 0 1-.603.13c-.315-.05-.519.084-.61.404-.75.471-1.541.887-2.372 1.248a.455.455 0 0 1-.542-.103c-.764-.735-1.645-.882-2.646-.439-.211.092-.43.131-.658.117a6.256 6.256 0 0 0-1.714.137c-.225.05-.396-.02-.515-.212a.843.843 0 0 0-.39-.329.762.762 0 0 0-.569-.014l-.912.329a1.03 1.03 0 0 1-.631.034c-.553-.132-1.035-.002-1.446.391a1.24 1.24 0 0 1-.528.295c-1.175.315-2.338.5-3.49.555a2.8 2.8 0 0 0-1.2.329c-.421.228-.834.441-1.241.638-.534.26-1.202.457-2.002.589-.805.133-1.552.327-2.242.583a6.671 6.671 0 0 1-1.549.343 4.48 4.48 0 0 0-1.721.542.61.61 0 0 1-.61 0c-.352-.188-.622-.54-.809-1.056-.308-.275-.48-.583-.877-.754a694.453 694.453 0 0 1-12.32-5.43c-.905-.407-1.687-.242-2.345.493l-.562.624c-.663.741-.56 1.353.308 1.838l11.326 6.328.185.425a.512.512 0 0 1-.027.5l-.329.528a.372.372 0 0 1-.22.165c-.16.041-.265.015-.315-.076-.178-.306-.373-.317-.583-.034-.21.283-.448.55-.713.802-.027.023-.039.016-.034-.021a.41.41 0 0 0-.014-.178c-.051-.164-.147-.199-.288-.103-.75.508-1.533.604-2.351.288a.795.795 0 0 0-.604.007c-.279.119-.505.055-.678-.192a.646.646 0 0 0-.521-.281 1.693 1.693 0 0 0-.645.123l-3.414-1.837a.593.593 0 0 0-.857.363c-.446 1.632-1.275 6.74.322 7.892-.21.091-.174.336.11.733.105.146.066.226-.117.24a.79.79 0 0 0-.507.22c-.041.036-.046.075-.014.116l.13.206c.069.105.046.187-.068.247l-.912.452a1.206 1.206 0 0 1-.658.13 1.635 1.635 0 0 0-.96.206.506.506 0 0 0-.274.494c.014.333-.14.562-.459.685-.471.187-.922.213-1.351.076a.347.347 0 0 0-.384.102.93.93 0 0 1-.672.288.89.89 0 0 0-.596.254 5.24 5.24 0 0 1-2.174 1.262 6.757 6.757 0 0 0-2.653 1.46 1.87 1.87 0 0 1-.768.397c-.402.096-.713.341-.932.734-.567 1.006-1.388 1.547-2.461 1.625-.243.018-.387-.091-.432-.329-.046-.256-.216-.418-.508-.487-.251-.06-.414-.125-.486-.199a1.082 1.082 0 0 1-.343-.699c-.024-.187-.126-.252-.309-.192-.384.128-.699.032-.946-.288-.197-.256-.302-.224-.315.096a.323.323 0 0 1-.137.254c-.202.159-.286.111-.254-.144.11-.869.052-1.639-.171-2.311-.257-.772-.364-1.485-.323-2.139.062-1.138.453-2.098.261-3.243a22.665 22.665 0 0 1-.288-4.723c.004-.087-.037-.131-.123-.131h-.206c-.215 0-.322.108-.322.323l.034 8.597a662.462 662.462 0 0 1-.144-21.562c.1-10.709.196-21.42.288-32.133.018-2.272.153-4.452.404-6.541a15.909 15.909 0 0 1 2.002-6.088c2.793-4.863 6.561-8.081 11.306-9.653 3.706-1.225 8.302-1.839 13.787-1.844Zm-9.036 21.486c-2.286-.205-3.993-.169-5.122.11-4.531 1.111-5.416 5.656-2.728 9.084 1.138 1.453 2.287 2.715 3.448 3.784 7.194 6.646 14.939 11.246 23.235 13.801 7.706 2.372 15.165 4.059 22.857 3.641 9.976-.542 10.798-12.903 2.866-17.003-7.976-4.122-16.546-7.413-25.709-9.872-6.349-1.701-12.06-2.948-18.847-3.545Z"/><path fill="#b12720" d="M813.78-47.579c1.545 2.372 2.681 4.765 3.408 7.178a405.29 405.29 0 0 1-15.899 1.296c-2.464.151-6.01.83-10.64 2.036l-.028-.576 6.465-1.823a.765.765 0 0 0 .508-.425 7.014 7.014 0 0 1 1.261-1.831c.402-.416.665-.917.789-1.501a4.742 4.742 0 0 0-.007-2.105.659.659 0 0 0-.453-.501c-1.175-.402-1.513-.868-1.014-1.398l15.61-.35Z"/><path fill="#d93f31" d="m767.325-47.353 30.845.124c-.499.53-.161.996 1.014 1.398a.659.659 0 0 1 .453.501c.16.667.162 1.369.007 2.105a3.017 3.017 0 0 1-.789 1.501 7.014 7.014 0 0 0-1.261 1.831.765.765 0 0 1-.508.425l-6.465 1.823c-2.13.681-4.161 1.744-6.095 3.188-2.107 1.572-2.774 3.632-2.001 6.177.452 1.509 1.279 3.718 2.481 6.63.521 1.901 1.574 3.444 3.161 4.628.311.236.692.363 1.083.363l34.437-.014c.617 0 1.219-.21 1.707-.596l5.985-4.724 5.883-1.583a.638.638 0 0 0 .274-.151l2.173-1.954c.165-.151.286-.329.364-.535.226-.631.754-1.227 1.426-1.378.31-.069.603-.173.877-.315.201-.101.416-.151.645-.151 1.494 0 2.975-.747 3.339-2.324.292-1.289.726-2.407 1.302-3.353.727-1.198 1.862-2.116 3.408-2.756.735-.306 1.786-1.177 3.153-2.612a82.075 82.075 0 0 1 13.842-5.992c.028.425-.301.617-.987.576a.476.476 0 0 0-.48.26.741.741 0 0 1-.5.384.547.547 0 0 0-.439.412l-.391 1.343a1.593 1.593 0 0 0-.055.686c.1.818-.089 1.572-.569 2.262a1.51 1.51 0 0 1-.487.446 1.08 1.08 0 0 0-.493.597.937.937 0 0 1-.178.301 116.75 116.75 0 0 0-2.784 3.222.574.574 0 0 0-.062.09c-.142.237-.181.464-.116.678.031.11-.007.185-.117.227-.48.173-.752.509-.816 1.007a.353.353 0 0 1-.342.302c-.435.014-.734.215-.899.603-.301.693-.898 1.255-1.398 1.803-.202.22-.533.496-.994.83a4.776 4.776 0 0 0-1.488 1.735.961.961 0 0 1-.452.445c-.805.393-1.324 1.04-1.557 1.94a.521.521 0 0 1-.349.384c-.828.297-1.344.56-1.55.789a4.029 4.029 0 0 1-2.194 1.254 1.012 1.012 0 0 0-.61.391c-.279.366-.654.512-1.124.439a.803.803 0 0 0-.658.185 6.098 6.098 0 0 1-2.16 1.186c-.791.238-1.433.619-1.926 1.145a.747.747 0 0 1-.508.24c-.256.014-.418.135-.487.363-.054.187-.181.288-.377.302a1.157 1.157 0 0 0-.445.117c-.238.109-.305.283-.199.521.059.128.18.228.363.301-3.387 2.295-4.895 5.298-4.525 9.009l-.144-.48c-.041-.124-.2-.162-.285-.069a.16.16 0 0 0-.037.069c-.155.581-.181 1.215-.075 1.906a.394.394 0 0 1-.082.315c-.079.096-.115.083-.11-.041a13.92 13.92 0 0 0-.425-3.812c-.065-.255-.188-.286-.37-.089-.115.128-.199.27-.254.425a.762.762 0 0 1-.398.418c-.887.403-1.456 1.049-1.707 1.941-.064.214-.183.39-.356.528-.631.493-1.262.964-1.893 1.412-.473.336-.603.562-.761 1.09a1.136 1.136 0 0 1-.336.548l-1.131 1.063a.71.71 0 0 0-.24.514c-.013.242-.119.372-.315.391a.47.47 0 0 0-.453.37c-.356 1.173-1.336 2.016-1.858 2.818a42.934 42.934 0 0 1-1.768 2.502c-.041.05-.453.684-1.234 1.899a8.02 8.02 0 0 1-1.707 1.872c-.192.156-.389.163-.59.021a.427.427 0 0 0-.24-.089.45.45 0 0 0-.391.15 12.713 12.713 0 0 1-2.687 2.181 1.428 1.428 0 0 0-.494.486.987.987 0 0 1-.788.467.873.873 0 0 0-.569.26 6.806 6.806 0 0 0-1.344 1.906c-.115.242-.051.42.192.535l.295.137c.516.242.49.389-.076.439l-2.495.226a1.187 1.187 0 0 0-.583.212 4.523 4.523 0 0 1-.322.199c-.101.064-.126.028-.076-.109.073-.184.023-.229-.151-.138a.624.624 0 0 0-.192.172.304.304 0 0 1-.267.123 7.463 7.463 0 0 0-3.654.754c-.247.119-.233.183.041.192l2.393.076-108.44-.041c-21.002-.133-36.894-.144-47.675-.035-14.144.137-22.968 10.325-31.243 20.259-2.516 3.017-4.922 4.498-8.857 3.374a747.339 747.339 0 0 1-21.692-6.582 1.124 1.124 0 0 1-.775-1.118l.288-6.211-.034-8.597c0-.215.107-.323.322-.323h.206c.086 0 .127.044.123.131a22.665 22.665 0 0 0 .288 4.723c.192 1.145-.199 2.105-.261 3.243-.041.654.066 1.367.323 2.139.223.672.281 1.442.171 2.311-.032.255.052.303.254.144a.323.323 0 0 0 .137-.254c.013-.32.118-.352.315-.096.247.32.562.416.946.288.183-.06.285.005.309.192.027.274.141.507.343.699.072.074.235.139.486.199.292.069.462.231.508.487.045.238.189.347.432.329 1.073-.078 1.894-.619 2.461-1.625.219-.393.53-.638.932-.734a1.87 1.87 0 0 0 .768-.397 6.757 6.757 0 0 1 2.653-1.46 5.24 5.24 0 0 0 2.174-1.262.89.89 0 0 1 .596-.254.93.93 0 0 0 .672-.288.347.347 0 0 1 .384-.102c.429.137.88.111 1.351-.076.319-.123.473-.352.459-.685a.506.506 0 0 1 .274-.494c.288-.165.608-.233.96-.206.233.019.452-.025.658-.13l.912-.452c.114-.06.137-.142.068-.247l-.13-.206c-.032-.041-.027-.08.014-.116a.79.79 0 0 1 .507-.22c.183-.014.222-.094.117-.24-.284-.397-.32-.642-.11-.733.823.663 1.659 1.124 2.509 1.384a1.249 1.249 0 0 0 1.351-.445l3.661-4.909a.522.522 0 0 0-.185-.775l-3.387-1.673c.228-.087.443-.128.645-.123a.646.646 0 0 1 .521.281c.173.247.399.311.678.192a.795.795 0 0 1 .604-.007c.818.316 1.601.22 2.351-.288.141-.096.237-.061.288.103a.41.41 0 0 1 .014.178c-.005.037.007.044.034.021.265-.252.503-.519.713-.802.21-.283.405-.272.583.034.05.091.155.117.315.076a.372.372 0 0 0 .22-.165l.329-.528a.512.512 0 0 0 .027-.5l-.185-.425c.74.493 1.375.44 1.906-.158.878-.987 1.776-1.824 2.564-2.941.187.516.457.868.809 1.056a.61.61 0 0 0 .61 0 4.48 4.48 0 0 1 1.721-.542 6.671 6.671 0 0 0 1.549-.343c.69-.256 1.437-.45 2.242-.583.8-.132 1.468-.329 2.002-.589.407-.197.82-.41 1.241-.638a2.8 2.8 0 0 1 1.2-.329 16.487 16.487 0 0 0 3.49-.555c.2-.055.377-.153.528-.295.411-.393.893-.523 1.446-.391.215.055.425.043.631-.034l.912-.329a.762.762 0 0 1 .569.014.843.843 0 0 1 .39.329c.119.192.29.262.515.212a6.256 6.256 0 0 1 1.714-.137c.228.014.447-.025.658-.117 1.001-.443 1.882-.296 2.646.439.155.156.336.19.542.103a17.754 17.754 0 0 0 2.372-1.248c.091-.32.295-.454.61-.404a.851.851 0 0 0 .603-.13c.311-.206.645-.35 1.001-.432.22-.05.434-.035.645.048.36.137.703.125 1.028-.035.274-.137.553-.251.837-.342 1.33-.439 2.616-.412 3.859.082.234.091.474.123.72.096l4.093-.466a.69.69 0 0 0 .48-.281c.338-.453.743-.522 1.214-.206a.48.48 0 0 0 .576 0 5.801 5.801 0 0 1 3.174-1.015 1.44 1.44 0 0 0 .644-.164 12.668 12.668 0 0 1 2.852-1.049 125.76 125.76 0 0 0 4.943-1.31c.484-.142.978-.269 1.481-.384a4.336 4.336 0 0 0 1.831-.905.541.541 0 0 1 .356-.13h.288c.069 0 .103-.034.103-.103a.926.926 0 0 1 .309-.747.934.934 0 0 1 .617-.254c.9-.05 1.631-.399 2.194-1.049.351-.411.778-.612 1.282-.603.223.005.432-.055.623-.178a12.945 12.945 0 0 1 4.512-1.783c.209-.041.399-.125.569-.253 1.16-.878 2.495-1.278 4.004-1.2.374.018.708-.087 1-.316.179-.137.38-.212.604-.226a30.664 30.664 0 0 0 4.566-.589c.031-.005.583-.213 1.652-.624 1.022-.391 2.091.116 2.989-.055a5.415 5.415 0 0 0 1.79-.672 5.842 5.842 0 0 1 1.83-.713 12.157 12.157 0 0 0 4.731-2.112c.211-.154.472-.225.733-.199 1.303.131 2.105-.815 3.469-.644a.574.574 0 0 0 .549-.226c.155-.197.338-.22.548-.069.151.105.302.108.453.007.621-.406 1.3-.523 2.036-.35a.46.46 0 0 0 .418-.096 1.37 1.37 0 0 1 .926-.308.98.98 0 0 0 .63-.206c.7-.53 1.41-.923 2.133-1.179a.502.502 0 0 0 .336-.356c.045-.165.166-.229.363-.192.187.036.356 0 .507-.11l3.476-2.516a.544.544 0 0 1 .418-.082c.114.027.217.02.309-.021a53.724 53.724 0 0 0 4.079-1.995 4.997 4.997 0 0 0 1.33-1.035c.503-.563 1.115-.864 1.838-.905a.635.635 0 0 0 .473-.261 6.089 6.089 0 0 1 1.227-1.296 283.883 283.883 0 0 0 7.486-6.074c.032-.027.044-.064.035-.11-.014-.054-.005-.094.027-.116a177.73 177.73 0 0 0 7.267-6.232c.064-.055.258-.304.583-.747.141-.188.32-.338.535-.453.201-.11.358-.26.473-.452.626-1.061 1.515-1.975 2.667-2.743.731-.489 1.2-1.195 1.405-2.118a.982.982 0 0 1 .24-.446c.741-.8 1.543-1.222 2.407-1.268a.367.367 0 0 0 .342-.37c-.004-.124.053-.204.172-.24.214-.074.214-.144 0-.213a.331.331 0 0 0-.199-.007.24.24 0 0 1-.24-.048c-.133-.109-.149-.286-.048-.528ZM742.733-7.081c.727 3.256 1.879 6.348 2.982 9.502.183.535.366.535.549 0a521.857 521.857 0 0 1 3.229-9.331c.361-1.015.069-1.849-.878-2.502a33.531 33.531 0 0 0-2.571-1.618c-.274-.16-.525-.133-.754.082-.98.905-2.907 2.31-2.557 3.867Z"/><path fill="#f34d3d" d="M875.867-46.571c.096-.42-.368-.574-1.391-.459 1.224-.201 2.392-.167 3.503.102.352.088.347.146-.014.179l-2.098.178Zm-21.644 7.466c-1.367 1.435-2.418 2.306-3.153 2.612-1.546.64-2.681 1.558-3.408 2.756-.576.946-1.01 2.064-1.302 3.353-.364 1.577-1.845 2.324-3.339 2.324-.229 0-.444.05-.645.151a3.594 3.594 0 0 1-.877.315c-.672.151-1.2.747-1.426 1.378a1.376 1.376 0 0 1-.364.535l-2.173 1.954a.638.638 0 0 1-.274.151l-5.883 1.583a193.112 193.112 0 0 1 5.773-3.805 14.479 14.479 0 0 0 2.057-1.583 49.724 49.724 0 0 1 2.064-1.831c1.247-1.056 2.331-2.345 3.249-3.867.169-.283.418-.452.747-.507.851-.132 1.465-.56 1.845-1.282.164-.311.408-.535.733-.672a60.75 60.75 0 0 1 1.824-.74c.544-.211 1.087-.554 1.632-1.029a10.067 10.067 0 0 1 2.92-1.796Z"/><path fill="#501315" d="m903.448-32.462-.096 64.473a.688.688 0 0 1-.486.658l-21.137 6.561c-2.185.544-3.924.139-5.217-1.213-1.669-1.742-5.01-5.595-10.024-11.559-.626-.746-1.851-1.918-3.674-3.517.072-.197.098-.366.075-.508-.027-.178-.128-.269-.302-.274l-.178-.007c-.041 0-.046-.014-.014-.041.238-.164.487-.279.748-.343a.769.769 0 0 0 .583-.678c.036-.389.246-.609.63-.659.338-.041.556-.226.652-.555.955-3.241 2.465-6.124 4.531-8.652a.499.499 0 0 0 .076-.562 2.416 2.416 0 0 1-.206-.939l4.347 4.559a.524.524 0 0 0 .569.144c.31-.096.473-.412.486-.946.412.699.992.875 1.742.527a25.044 25.044 0 0 0 8.001-5.889c.219-.238.381-.498.486-.781.388-1.034.247-1.349-.425-.946.078-.362.092-.643.041-.844a.654.654 0 0 0-.959-.404c-2.885 1.668-5.149 1.218-6.795-1.351 6.699-4.559 11.861-10.16 16.482-15.953 4.203-5.273 6.349-10.942 8.481-18.093.055-.183.151-.341.288-.473.196-.187.271-.427.226-.72a1.114 1.114 0 0 1 .089-.679c.151-.334.258-.672.322-1.014.078-.421.199-.434.364-.042l.294.72Zm-18.546 47.939c-.123-.363-1.499-.225-3.073.308-1.575.534-2.752 1.259-2.629 1.622.123.362 1.499.223 3.073-.31 1.574-.533 2.752-1.258 2.629-1.62Z"/><path fill="#f2ece2" d="M745.715 2.421c-1.103-3.154-2.255-6.246-2.982-9.502-.35-1.557 1.577-2.962 2.557-3.867.229-.215.48-.242.754-.082.928.53 1.785 1.069 2.571 1.618.947.653 1.239 1.487.878 2.502a521.857 521.857 0 0 0-3.229 9.331c-.183.535-.366.535-.549 0Z"/><path fill="#0" d="M625.525 9.332c-.788 1.117-1.686 1.954-2.564 2.941-.531.598-1.166.651-1.906.158l-11.326-6.328c-.868-.485-.971-1.097-.308-1.838l.562-.624c.658-.735 1.44-.9 2.345-.493a694.453 694.453 0 0 0 12.32 5.43c.397.171.569.479.877.754Zm251.377-5.54c1.646 2.569 3.91 3.019 6.795 1.351a.654.654 0 0 1 .959.404c.051.201.037.482-.041.844a9189.29 9189.29 0 0 0-9.043 5.793c-.534.343-.788.774-.761 1.296-.013.534-.176.85-.486.946a.524.524 0 0 1-.569-.144l-4.347-4.559c-.325-.256-.544-.535-.658-.837-.087-.224-.026-.395.185-.514l7.966-4.58Z"/><path fill="#d93f31" d="M874.811 13.48c-.027-.522.227-.953.761-1.296a9189.29 9189.29 0 0 1 9.043-5.793c.672-.403.813-.088.425.946a2.361 2.361 0 0 1-.486.781 25.044 25.044 0 0 1-8.001 5.889c-.75.348-1.33.172-1.742-.527Z"/><path fill="#0" d="m613.918 14.384 3.387 1.673a.522.522 0 0 1 .185.775l-3.661 4.909a1.249 1.249 0 0 1-1.351.445c-.85-.26-1.686-.721-2.509-1.384-1.597-1.152-.768-6.26-.322-7.892a.593.593 0 0 1 .857-.363l3.414 1.837Z"/><ellipse fill="#b12720" transform="rotate(-18.7 490.955 -2670.304)" rx="3.01" ry=".692"/><path fill="#0" d="M704.765 22.31c46.341-.115 92.685-.055 139.03.178 7.117.036 13.008 2.688 17.675 7.953a5052.68 5052.68 0 0 0 10.496 11.792c.69.773 1.458 1.479 2.304 2.119 2.239 1.371 4.712 1.727 7.418 1.069a391.721 391.721 0 0 0 21.363-5.834.322.322 0 0 1 .411.308l-.007 13.63a1.22 1.22 0 0 0 .892 1.172c1.599.448 3.354.651 5.265.61 3.414-.073 6.563-.132 9.447-.178 1.97-.027 3.377.272 4.223.898 2.311 1.721 2.613 6.451-.335 7.795-.618.279-1.756.418-3.415.418-114.973-.104-229.946-.098-344.919.021-1.604 0-2.752-.233-3.441-.699-2.455-1.666-1.872-5.842.24-7.535.735-.59 1.858-.884 3.366-.884 3.784 0 7.415-.005 10.894-.014 3.051-.014 3.455-1.92 3.394-4.6a536.192 536.192 0 0 1-.131-10.579.46.46 0 0 1 .597-.439 233.769 233.769 0 0 0 23.563 6.075c5.513 1.117 8.591-2.002 12.053-5.821 3.876-4.273 7.116-7.663 9.722-10.167 5.082-4.9 11.193-7.324 18.332-7.274 17.19.123 34.378.118 51.563-.014Zm143.569 29.796-5.245-6.095a1.402 1.402 0 0 0-1.062-.487c-34.54-.185-69.087.02-103.634-.158-28.79-.146-57.566-.096-86.329.151a.802.802 0 0 0-.61.281l-5.725 6.527a.178.178 0 0 0 .137.295l202.249-.041c.42 0 .493-.158.219-.473Z"/><circle fill="#0" cx="560.065" cy="59.674" r="4.552"/><ellipse fill="#0" transform="rotate(101.3 442.823 413.058)" rx="4.587" ry="4.319"/><path fill="#0" d="M1002.483 15.73c9.611 4.012 18.78 1.567 26.517-4.7a1.86 1.86 0 0 1 2.432.099 118.534 118.534 0 0 1 8.485 8.78c1.582 1.826 1.876 4.159.227 6.181-5.767 7.039-13.425 11.174-22.974 12.404-20.592 2.641-37.154-7.458-46.914-25.244-8.746-15.958-5.872-35.799 5.093-49.604 9.887-12.467 22.821-18.325 38.802-17.575 11.014.506 21.081 5.775 27.446 14.93.468.659.525 1.531.146 2.251-2.364 4.473-7.601 7.375-11.585 10.265a1.427 1.427 0 0 1-1.68-.016c-11.488-8.501-29.487-6.935-37.646 5.416-8.582 13.005-2.756 30.775 11.651 36.813Zm75.224.065c.055 5.158.073 10.292.065 15.403-.032 8.341-8.796 7.701-14.961 7.067-3.951-.414-5.953-2.991-6.006-7.736a5834.764 5834.764 0 0 1-.262-75.808c.023-3.635 1.349-6.133 3.983-7.492 1.489-.76 3.868-1.125 7.13-1.091 8.472.076 16.92.178 25.341.309 31.263.473 47.824 43.959 20.151 62.331a3.704 3.704 0 0 0-1.353 4.57c2.399 5.548 7.148 9.986 10.719 15.125 2.953 4.261 1.308 8.894-3.85 9.826-5.402.978-12.827 1.745-16.236-3.38a278.232 278.232 0 0 1-12.124-20.086c-2.106-3.834-8.012-2.302-11.294-.981a2.054 2.054 0 0 0-1.303 1.943Zm-.458-22.501a.554.554 0 0 0 .556.57c4.797 0 9.62-.038 14.472-.115 4.689-.062 7.964-.591 9.824-1.582 4.08-2.187 5.75-5.725 5.009-10.621-2.316-15.274-17.443-13.626-28.962-13.055-.568.021-.849.314-.849.881l-.05 23.922Zm190.408-8.909c8.519 0 17.607-.055 27.265-.165 6.049-.063 9.391 2.829 10.023 8.683.465 4.471-.736 7.8-3.608 9.984-1.776 1.36-4.788 2.013-9.039 1.959a1098.34 1098.34 0 0 0-24.738-.05c-.886.012-1.6.724-1.6 1.599.022 7.54.076 14.872.165 21.997.022 2.633-.229 4.508-.752 5.629-2.854 6.135-16.447 6.331-19.548.441-.71-1.36-1.082-3.813-1.125-7.361-.317-30.163-.274-54.471.129-72.92.086-3.514 1.44-5.902 4.064-7.163 1.326-.642 3.757-.964 7.292-.964 16.733.034 33.452.05 50.16.05 10.557 0 13.871 22.598.41 22.518a4594.81 4594.81 0 0 0-38.772-.034c-.99.013-1.489.507-1.499 1.486l-.131 12.988c0 .883.432 1.323 1.304 1.323Zm88.162-14.916c-.358-.924-1.037-1.391-2.039-1.402-6.733-.033-13.297-.028-19.695.017-8.794.065-11.11-21.818 2.857-21.883a9853.11 9853.11 0 0 1 59.557-.113c5.125 0 8.65 1.29 10.64 6.297 2.039 5.192 1.095 15.34-6.543 15.535-6.614.177-13.664.29-21.147.343-1.709.011-2.567.875-2.577 2.593-.024 18.723-.017 38.173.013 58.353 0 9.789-13.394 12.742-18.683 5.989-1.402-1.808-2.1-4.847-2.086-9.12.043-17.44.033-35.556-.034-54.355 0-1.065-.089-1.816-.263-2.254Zm88.736.263.097 12.53c0 .636.515 1.152 1.161 1.159 8.547.067 17.495.017 26.839-.145 7.638-.114 12.876 4.486 10.282 12.513-1.428 4.452-4.543 6.703-9.351 6.756-9.627.11-18.896.169-27.804.182-1.328.011-1.996.68-2.006 2.005l-.017 11.52c0 1.284.64 1.914 1.925 1.895 12.041-.22 24.337-.345 36.894-.377 8.941-.016 12.123 8.747 9.366 15.959-1.273 3.312-4.504 4.486-8.029 4.52-21.268.216-39.189.143-53.765-.229-6.184-.165-7.083-4.584-7.033-10.035.152-22.975.136-47.31-.05-73.006-.032-4.699 1.871-7.445 5.712-8.239 1.634-.338 4.579-.5 8.843-.489 15.022.043 30.047.065 45.07.065 2.828 0 4.868.376 6.119 1.125 4.896 2.972 4.52 10.086 3.149 14.816-1.55 5.337-7.066 6.56-12.63 6.445a1039.512 1039.512 0 0 0-33.598-.144c-.783 0-1.174.39-1.174 1.174Zm90.414 43.681a1.305 1.305 0 0 0-1.044 1.226 563.745 563.745 0 0 1-.995 17.524c-.229 3.318-1.523 5.33-3.884 6.035-6.218 1.879-16.513 1.552-16.448-7.555.172-21.929.099-47.281-.227-76.054-.067-5.603 2.506-8.392 7.719-8.371 9.188.055 18.578.119 28.163.195 7.897.077 15.324 3.253 22.288 9.53 12.37 11.16 16.873 30.399 6.607 44.434-2.464 3.377-6.444 6.2-9.869 8.811-.7.534-.95 1.473-.605 2.286 2.359 5.599 5.827 10.401 10.394 14.404 3.72 3.265 6.495 7.148 1.65 10.983-2.498 1.975-7.228 1.599-10.364 1.763-4.732.259-8.611-1.752-11.633-6.039-5.31-7.549-9.034-13.791-11.177-18.733-.307-.717-.85-1.098-1.633-1.138-2.763-.153-5.744.08-8.942.699Zm-1.942-43.322.131 22.059a1.925 1.925 0 0 0 1.925 1.91l13.559-.064c7.458-.039 13.472-5.783 13.431-12.826v-.424c-.045-7.033-6.115-12.7-13.561-12.662l-13.56.065c-1.07 0-1.935.87-1.925 1.942Zm-332.94 53.798a3.311 3.311 0 0 0-3.034-1.991l-27.333-.016a4.544 4.544 0 0 0-4.355 3.264 386.758 386.758 0 0 1-2.873 9.463c-1.582 4.977-15.565 4.015-18.52 3.575-4.764-.701-4.896-7.426-3.427-10.95a6926.229 6926.229 0 0 1 7.018-16.789 5515.763 5515.763 0 0 0 24.849-60.032 5.877 5.877 0 0 1 5.5-3.673l11.275.067a4.913 4.913 0 0 1 4.502 3.035 6578.936 6578.936 0 0 1 25.229 61.694c1.033 2.535 2.435 5.473 4.209 8.812 2.677 5.025 6.625 12.776 2.237 16.596-3.004 2.595-12.336 2.168-15.714 1.613-4.764-.799-7.931-10.868-9.563-14.668Zm-26.06-20.609a.835.835 0 0 0 .801 1.11l17.558-.114a.834.834 0 0 0 .783-1.126l-8.959-23.809a.832.832 0 0 0-1.566.017l-8.617 23.922Z"/></svg>